<?xml version="1.0" standalone="no"?>
<!DOCTYPE svg PUBLIC "-//W3C//DTD SVG 20010904//EN"
 "http://www.w3.org/TR/2001/REC-SVG-20010904/DTD/svg10.dtd">
<svg version="1.0" xmlns="http://www.w3.org/2000/svg"
 width="339.000000pt" height="107.000000pt" viewBox="0 0 339.000000 107.000000"
 preserveAspectRatio="xMidYMid meet">

<g transform="translate(0.000000,107.000000) scale(0.100000,-0.100000)"
fill="#000000" stroke="none">
<path d="M101 996 c-50 -28 -50 -33 -51 -458 0 -287 3 -404 12 -423 24 -54 33
-55 471 -55 394 0 405 1 431 21 16 12 31 38 37 65 l11 44 1127 0 c1248 0 1171
-4 1171 63 0 38 -7 50 -37 66 -16 8 -317 11 -1142 11 -1114 0 -1121 0 -1121
20 0 20 7 20 370 20 l371 0 8 22 c5 13 5 31 -1 41 -8 16 -36 17 -378 17 l-370
0 0 223 c0 122 -5 239 -10 259 -6 20 -22 46 -37 58 -25 19 -38 20 -432 20
-318 -1 -411 -4 -430 -14z m844 -41 l25 -24 0 -396 0 -396 -25 -24 -24 -25
-393 0 c-414 1 -412 0 -436 47 -17 31 -17 765 0 796 24 47 22 46 436 47 l393
0 24 -25z"/>
<path d="M388 916 c-138 -49 -239 -170 -255 -305 l-6 -51 192 0 191 0 0 185 0
185 -42 0 c-24 -1 -59 -7 -80 -14z"/>
<path d="M550 746 l0 -186 186 0 187 0 -6 51 c-19 156 -159 297 -315 316 l-52
6 0 -187z"/>
<path d="M130 486 c0 -42 36 -141 68 -188 59 -86 157 -145 258 -155 l54 -6 0
187 0 186 -190 0 -190 0 0 -24z"/>
<path d="M550 324 l0 -187 54 6 c152 15 298 161 313 312 l6 55 -187 0 -186 0
0 -186z"/>
<path d="M2650 948 c-76 -39 -81 -61 -78 -290 3 -180 5 -199 24 -225 30 -42
80 -63 147 -63 105 0 160 40 177 129 5 30 10 67 10 82 l0 29 -80 0 -79 0 -3
-67 c-3 -60 -5 -68 -23 -68 -19 0 -20 8 -23 175 -3 195 0 223 26 218 14 -3 18
-18 22 -83 l5 -80 75 0 75 0 3 37 c5 64 -16 149 -44 179 -50 52 -159 65 -234
27z"/>
<path d="M1160 775 c0 -214 5 -233 70 -259 49 -20 81 -20 123 -2 70 29 72 37
72 250 l0 191 -57 3 -58 3 -2 -187 c-2 -139 -6 -188 -15 -192 -10 -3 -13 39
-13 187 l0 191 -60 0 -60 0 0 -185z"/>
<path d="M1470 731 l0 -231 60 0 60 0 0 94 0 93 47 6 c72 8 86 31 81 134 -4
116 -15 126 -148 131 l-100 4 0 -231z m145 94 c0 -30 -5 -50 -12 -52 -10 -4
-13 11 -13 52 0 41 3 56 13 53 7 -3 12 -23 12 -53z"/>
<path d="M1760 901 c0 -38 5 -61 13 -65 10 -5 10 -7 0 -12 -7 -3 -13 -17 -13
-31 0 -21 3 -23 23 -18 48 15 71 50 75 120 l4 65 -51 0 -51 0 0 -59z"/>
<path d="M1900 900 l0 -60 45 0 45 0 0 -240 0 -240 75 0 75 0 0 240 0 240 45
0 45 0 0 60 0 60 -165 0 -165 0 0 -60z"/>
<path d="M2275 947 c-3 -7 -4 -140 -3 -297 l3 -285 125 0 125 0 0 65 0 65 -47
3 -48 3 0 60 0 59 45 0 45 0 0 55 0 55 -45 0 -45 0 0 55 0 55 50 0 50 0 0 60
0 60 -125 0 c-92 0 -127 -3 -130 -13z"/>
<path d="M2970 665 l0 -295 75 0 75 0 0 125 c0 118 1 125 20 125 19 0 20 -7
20 -125 l0 -125 80 0 80 0 -2 293 -3 292 -77 3 -78 3 0 -106 c0 -98 -1 -105
-20 -105 -19 0 -20 7 -20 105 l0 105 -75 0 -75 0 0 -295z"/>
</g>
</svg>
